<?xml version="1.0" encoding="iso-8859-1"?>
<!-- Generator: Adobe Illustrator 19.0.0, SVG Export Plug-In . SVG Version: 6.00 Build 0)  -->
<svg version="1.1" id="Capa_1" xmlns="http://www.w3.org/2000/svg" xmlns:xlink="http://www.w3.org/1999/xlink" x="0px" y="0px"
	 viewBox="0 0 512 512" style="enable-background:new 0 0 512 512;" xml:space="preserve">
<g>
	<g>
		<path d="M445.979,363.129c-16.161-35.099-24.999-75.718-24.989-115.288c0.007-26.246,4.909-86.27-48.305-139.499
			c-21.424-21.429-47.703-36.241-76.357-43.406C299.313,58.923,301,52.156,301,45c0-24.813-20.187-45-45-45s-45,20.187-45,45
			c0,7.176,1.697,13.961,4.698,19.987C154.732,80.348,107.141,129.722,94.384,191.67c-0.055,0.243-0.101,0.489-0.144,0.736
			C90.301,211.984,91,224.54,91,247.933c0,39.534-8.833,80.114-24.981,115.197C45.995,367.684,31,385.618,31,407
			c0,24.813,20.187,45,45,45h120c0,33.084,26.916,60,60,60s60-26.916,60-60h120c24.813,0,45-20.187,45-45
			C481,385.617,466.003,367.682,445.979,363.129z M256,30c8.271,0,15,6.729,15,15s-6.729,15-15,15s-15-6.729-15-15
			S247.729,30,256,30z M255.998,90c59.831,0,109.213,38.56,127.347,90H128.721C147.295,127.62,197.332,90,255.998,90z M121.838,210
			h268.33c1.042,9.489,0.829,13.642,0.822,37.833c-0.01,38.772,7.67,78.504,21.877,114.167H99.132
			C113.32,326.38,121,286.679,121,247.933C121,222.915,120.804,219.306,121.838,210z M256,482c-16.542,0-30-13.458-30-30h60
			C286,468.542,272.542,482,256,482z M436,422H76c-8.271,0-15-6.729-15-15s6.729-15,15-15h360c8.271,0,15,6.729,15,15
			S444.271,422,436,422z"/>
	</g>
</g>
<g>
</g>
<g>
</g>
<g>
</g>
<g>
</g>
<g>
</g>
<g>
</g>
<g>
</g>
<g>
</g>
<g>
</g>
<g>
</g>
<g>
</g>
<g>
</g>
<g>
</g>
<g>
</g>
<g>
</g>
</svg>
