<?xml version="1.0" encoding="iso-8859-1"?>
<!-- Generator: Adobe Illustrator 19.0.0, SVG Export Plug-In . SVG Version: 6.00 Build 0)  -->
<svg version="1.1" id="Capa_1" xmlns="http://www.w3.org/2000/svg" xmlns:xlink="http://www.w3.org/1999/xlink" x="0px" y="0px"
	 viewBox="0 0 511.999 511.999" style="enable-background:new 0 0 511.999 511.999;" xml:space="preserve">
<g>
	<g>
		<path d="M408.262,232.341l-45.334-52.89c0-7.586,0-128.674,0-134.451c0-24.813-20.187-45-45-45s-45,20.187-45,45v60v17.57
			c-4.693-1.664-9.743-2.57-15-2.57c-20.718,0-38.211,14.075-43.421,33.164c-5.133-2.042-10.727-3.164-16.579-3.164
			c-20.718,0-38.211,14.075-43.421,33.164c-5.133-2.042-10.727-3.164-16.579-3.164c-24.813,0-45,20.187-45,45
			c0,21.068,0,14.914,0,35.987v79.145c0,4.827,0.771,9.597,2.292,14.179l22.047,67.688h-9.339c-8.284,0-15,6.716-15,15v60
			c0,8.284,6.716,15,15,15h270c8.284,0,15-6.716,15-15v-60c0-8.284-6.716-15-15-15h-9.268l48.126-146.142
			C421.757,260.947,418.489,244.273,408.262,232.341z M362.928,481.999h-240v-30c8.264,0,223.64,0,240,0V481.999z M388.309,266.421
			l-51.234,155.578H148.817l-25.088-77.027c-0.011-0.033-0.021-0.065-0.032-0.098c-0.511-1.533-0.77-3.129-0.77-4.744v-79.145
			c0-21.075,0-14.915,0-35.987c0-8.271,6.729-15,15-15c8.271,0,15,6.729,15,15v30c0,8.284,6.716,15,15,15s15-6.716,15-15
			c0-6.359,0-53.641,0-60c0-8.271,6.729-15,15-15s15,6.729,15,15v60c0,8.284,6.716,15,15,15s15-6.716,15-15c0-8.529,0-77.68,0-90
			c0-8.271,6.729-15,15-15s15,6.729,15,15v90c0,8.284,6.716,15,15,15s15-6.716,15-15c0-6.397,0-198.974,0-210
			c0-8.271,6.729-15,15-15s15,6.729,15,15c0,10.118,0,199.647,0,210c0,8.284,6.716,15,15,15s15-6.716,15-15v-29.451l22.557,26.317
			C388.894,255.842,389.983,261.4,388.309,266.421z"/>
	</g>
</g>
<g>
</g>
<g>
</g>
<g>
</g>
<g>
</g>
<g>
</g>
<g>
</g>
<g>
</g>
<g>
</g>
<g>
</g>
<g>
</g>
<g>
</g>
<g>
</g>
<g>
</g>
<g>
</g>
<g>
</g>
</svg>
